<?xml version="1.0" encoding="UTF-8"?>
<svg id="SVGRoot" width="37" height="30" version="1.1" viewBox="0 0 37 30" xmlns="http://www.w3.org/2000/svg">
 <g id="layer1">
  <g id="text28" style="inline-size:5.98835;white-space:pre" aria-label="ð…Ÿ">
   <path id="path80" d="m5.7735 23.654c0 0.77618 0.75725 1.3063 1.5713 1.3063 1.4009 0 2.9722-0.98442 2.9722-2.4611v-10.479h-0.57998v9.3822c-0.28397-0.18931-0.55589-0.26623-0.95345-0.26623-1.382 0-3.0101 1.1548-3.0101 2.5179z" stroke-width="1.4123"/>
   <path id="rect178" d="m9.737 12h15.93v1.5453h-15.93z" opacity=".994"/>
   <path id="path80-6" d="m13.457 23.654c0 0.77618 0.75725 1.3063 1.5713 1.3063 1.4009 0 2.9722-0.98442 2.9722-2.4611v-10.479h-0.57998v9.3821c-0.28397-0.18931-0.55589-0.26623-0.95345-0.26623-1.382 0-3.0101 1.1548-3.0101 2.5179z" style="inline-size:5.98835;white-space:pre"/>
   <path id="path80-0" d="m21.14 23.654c0 0.77618 0.75725 1.3063 1.5713 1.3063 1.4009 0 2.9722-0.98442 2.9722-2.4611v-10.479h-0.57998v9.3821c-0.28397-0.18931-0.55589-0.26623-0.95345-0.26623-1.382 0-3.0101 1.1548-3.0101 2.5179z" style="inline-size:5.98835;white-space:pre"/>
   <g id="text1059" aria-label="3">
    <path id="path16" d="m16.071 5.4647c0.35467-0.56933 0.66267-0.784 1.148-0.784 0.588 0 0.952 0.364 0.952 0.96133 0 0.616-0.32667 0.94267-1.2133 1.2227v0.15867c0.77467 0.27067 1.0827 0.42933 1.4187 0.74667 0.28933 0.27067 0.45733 0.69067 0.45733 1.1387 0 0.672-0.35467 1.1013-0.91467 1.1013-0.224 0-0.40133-0.10267-0.70933-0.40133-0.364-0.364-0.63467-0.51333-0.924-0.51333-0.35467 0-0.60667 0.224-0.60667 0.54133 0 0.504 0.56 0.84 1.4187 0.84 1.568 0 2.8-1.064 2.8-2.4267 0-0.43867-0.14-0.83067-0.41067-1.1573-0.196-0.23333-0.35467-0.336-0.728-0.504 0.59733-0.364 0.77467-0.63467 0.77467-1.1853 0-0.80267-0.56933-1.2787-1.5213-1.2787-0.924 0-1.624 0.46667-2.1373 1.428z" stroke-width="1.4123"/>
   </g>
  </g>
 </g>
</svg>
