<?xml version="1.0" encoding="UTF-8"?>
<svg id="SVGRoot" width="30" height="30" version="1.1" viewBox="0 0 30 30" xmlns="http://www.w3.org/2000/svg">
 <g id="layer1">
  <g id="text28" style="inline-size:5.98835;white-space:pre" aria-label="ð…Ÿ">
   <path id="path80" d="m5.0573 22.593c0 0.7721 0.75327 1.2994 1.563 1.2994 1.3935 0 2.9566-0.97925 2.9566-2.4481v-14.445h-0.57693v13.354c-0.28247-0.18832-0.55297-0.26483-0.94844-0.26483-1.3747 0-2.9942 1.1487-2.9942 2.5046z" stroke-width="1.4049"/>
   <path id="rect178" d="m9 6.9783h15.91v1.5372h-15.91z" opacity=".994"/>
   <path id="rect178-3" d="m9 10h15.91v1.5372h-15.91z" opacity=".994" style="inline-size:5.98835;white-space:pre"/>
   <path id="path80-3" d="m10.198 22.593c0 0.7721 0.75327 1.2994 1.563 1.2994 1.3935 0 2.9566-0.97925 2.9566-2.4481v-14.445h-0.57694v13.354c-0.28247-0.18832-0.55297-0.26483-0.94844-0.26483-1.3747 0-2.9942 1.1487-2.9942 2.5046z" style="inline-size:5.98835;white-space:pre"/>
   <path id="path80-6" d="m15.339 22.593c0 0.7721 0.75327 1.2994 1.563 1.2994 1.3935 0 2.9566-0.97925 2.9566-2.4481v-14.445h-0.57694v13.354c-0.28248-0.18832-0.55297-0.26483-0.94844-0.26483-1.3747 0-2.9942 1.1487-2.9942 2.5046z" style="inline-size:5.98835;white-space:pre"/>
   <path id="path80-7" d="m20.48 22.593c0 0.7721 0.75327 1.2994 1.563 1.2994 1.3935 0 2.9566-0.97925 2.9566-2.4481v-14.445h-0.57694v13.354c-0.28248-0.18832-0.55297-0.26483-0.94844-0.26483-1.3747 0-2.9942 1.1487-2.9942 2.5046z" style="inline-size:5.98835;white-space:pre"/>
  </g>
 </g>
</svg>
