<?xml version="1.0" encoding="UTF-8"?>
<svg id="SVGRoot" width="30" height="30" version="1.1" viewBox="0 0 30 30" xmlns="http://www.w3.org/2000/svg">
 <g id="layer1">
  <g id="text28" aria-label="ð„¾ ð…   ">
   <path id="path10" d="m8.0417 13.28c-0.026667 0-0.08-0.02667-0.13333-0.05333 0.13333-0.24 0.18667-0.48 0.18667-0.74667 0-0.72-0.56-1.5733-1.5733-1.5733-1.0667 0-1.6 0.85333-1.6 1.5733 0 1.12 1.12 1.8933 2.08 1.8933 0.50667 0 1.2-0.21333 2.0267-0.64l-1.92 6.9333h0.98667l2.56-9.2h-0.56c-0.34667 0.50667-1.4133 1.8133-2.0533 1.8133z"/>
   <path id="path12" d="m13.905 23.52c0 1.0933 1.0667 1.84 2.2133 1.84 1.9733 0 4.1867-1.3867 4.1867-3.4667v-11.413c2.3467 0.16 4.3733 2.6667 4.3733 4.9867 0 1.7867-0.64 2.8267-1.6 4.9067h0.61333c1.28-2.0533 1.8933-3.84 1.8933-5.3067 0-4.6667-4.4267-4.8-5.3067-10.427h-0.56v15.787c-0.4-0.26667-1.0133-0.45333-1.5733-0.45333-1.9467 0-4.24 1.6267-4.24 3.5467z"/>
  </g>
 </g>
</svg>
