<?xml version="1.0" encoding="UTF-8" standalone="no"?>
<svg
   xmlns:dc="http://purl.org/dc/elements/1.1/"
   xmlns:cc="http://creativecommons.org/ns#"
   xmlns:rdf="http://www.w3.org/1999/02/22-rdf-syntax-ns#"
   xmlns:svg="http://www.w3.org/2000/svg"
   xmlns="http://www.w3.org/2000/svg"
   xmlns:sodipodi="http://sodipodi.sourceforge.net/DTD/sodipodi-0.dtd"
   xmlns:inkscape="http://www.inkscape.org/namespaces/inkscape"
   id="SVGRoot"
   version="1.1"
   viewBox="0 0 30 30"
   height="30"
   width="30"
   inkscape:version="1.0 (4035a4fb49, 2020-05-01)"
   sodipodi:docname="sixteenth.svg">
  <defs
     id="defs10" />
  <sodipodi:namedview
     inkscape:guide-bbox="true"
     showguides="true"
     inkscape:snap-grids="true"
     id="base"
     pagecolor="#ffffff"
     bordercolor="#666666"
     borderopacity="1.0"
     inkscape:pageopacity="0.0"
     inkscape:pageshadow="2"
     inkscape:zoom="16"
     inkscape:cx="1.3675731"
     inkscape:cy="20.417867"
     inkscape:document-units="px"
     inkscape:current-layer="text28"
     inkscape:document-rotation="0"
     showgrid="true"
     inkscape:window-width="2556"
     inkscape:window-height="1388"
     inkscape:window-x="0"
     inkscape:window-y="24"
     inkscape:window-maximized="1">
    <inkscape:grid
       id="grid19"
       type="xygrid" />
  </sodipodi:namedview>
  <metadata
     id="metadata13">
    <rdf:RDF>
      <cc:Work
         rdf:about="">
        <dc:format>image/svg+xml</dc:format>
        <dc:type
           rdf:resource="http://purl.org/dc/dcmitype/StillImage" />
        <dc:title />
      </cc:Work>
    </rdf:RDF>
  </metadata>
  <g
     inkscape:label="Layer 1"
     inkscape:groupmode="layer"
     id="layer1">
    <g
       style="font-style:normal;font-weight:normal;font-size:18.6667px;line-height:1.25;font-family:sans-serif;letter-spacing:0px;word-spacing:0px;white-space:pre;inline-size:5.98835;fill:#000000;fill-opacity:1;stroke:none"
       id="text28"
       aria-label="ð…Ÿ">
      <path
         sodipodi:nodetypes="ssscccss"
         id="path80"
         style="font-size:18.6667px;stroke-width:1.40487"
         d="m 5.0573184,22.593493 c 0,0.772102 0.7532693,1.299391 1.5630342,1.299391 1.3935484,0 2.9565819,-0.979251 2.9565819,-2.448126 V 7 H 9 V 20.353705 C 8.7175253,20.165388 8.4470299,20.088872 8.0515641,20.088872 c -1.374716,0 -2.9942457,1.148738 -2.9942457,2.504621 z" />
      <rect
         y="6.9783058"
         x="9"
         height="1.5371531"
         width="15.910329"
         id="rect178"
         style="opacity:0.994;fill:#000000;stroke:none;stroke-width:9.42556;stroke-linejoin:round;stroke-miterlimit:4;stroke-dasharray:none" />
      <rect
         style="font-style:normal;font-weight:normal;font-size:18.6667px;line-height:1.25;font-family:sans-serif;letter-spacing:0px;word-spacing:0px;white-space:pre;inline-size:5.98835;opacity:0.994;fill:#000000;fill-opacity:1;stroke:none;stroke-width:9.42556;stroke-linejoin:round;stroke-miterlimit:4;stroke-dasharray:none"
         id="rect178-3"
         width="15.910329"
         height="1.5371531"
         x="9"
         y="10" />
      <path
         d="m 10.198341,22.593493 c 0,0.772102 0.753269,1.299391 1.563034,1.299391 1.393548,0 2.956582,-0.979251 2.956582,-2.448126 V 7 h -0.576935 v 13.353705 c -0.282474,-0.188317 -0.55297,-0.264833 -0.948436,-0.264833 -1.374716,0 -2.994245,1.148738 -2.994245,2.504621 z"
         style="font-style:normal;font-weight:normal;font-size:18.6667px;line-height:1.25;font-family:sans-serif;letter-spacing:0px;word-spacing:0px;white-space:pre;inline-size:5.98835;fill:#000000;fill-opacity:1;stroke:none;stroke-width:1.40487"
         id="path80-3"
         sodipodi:nodetypes="ssscccss" />
      <path
         d="m 15.339363,22.593493 c 0,0.772102 0.753269,1.299391 1.563034,1.299391 1.393548,0 2.956582,-0.979251 2.956582,-2.448126 V 7 h -0.576935 v 13.353705 c -0.282475,-0.188317 -0.55297,-0.264833 -0.948436,-0.264833 -1.374716,0 -2.994245,1.148738 -2.994245,2.504621 z"
         style="font-style:normal;font-weight:normal;font-size:18.6667px;line-height:1.25;font-family:sans-serif;letter-spacing:0px;word-spacing:0px;white-space:pre;inline-size:5.98835;fill:#000000;fill-opacity:1;stroke:none;stroke-width:1.40487"
         id="path80-6"
         sodipodi:nodetypes="ssscccss" />
      <path
         d="m 20.480384,22.593493 c 0,0.772102 0.753269,1.299391 1.563034,1.299391 C 23.436966,23.892884 25,22.913633 25,21.444758 V 7 h -0.576935 v 13.353705 c -0.282475,-0.188317 -0.55297,-0.264833 -0.948436,-0.264833 -1.374716,0 -2.994245,1.148738 -2.994245,2.504621 z"
         style="font-style:normal;font-weight:normal;font-size:18.6667px;line-height:1.25;font-family:sans-serif;letter-spacing:0px;word-spacing:0px;white-space:pre;inline-size:5.98835;fill:#000000;fill-opacity:1;stroke:none;stroke-width:1.40487"
         id="path80-7"
         sodipodi:nodetypes="ssscccss" />
    </g>
  </g>
</svg>
